<svg xmlns="http://www.w3.org/2000/svg" viewBox="0 0 768 681" version="1.1">
	<path fill-opacity="0.333" d="M 62.362 18.500 C 62.045 19.325, 62.045 20.675, 62.362 21.500 C 62.872 22.829, 102.141 23, 407.469 23 L 752 23 752 346.999 L 752 670.997 405.750 671.249 C 60.250 671.499, 59.500 671.504, 59.500 673.500 C 59.500 675.496, 60.250 675.501, 408.750 675.751 L 758 676.003 758 346.501 L 758 17 410.469 17 C 102.474 17, 62.872 17.171, 62.362 18.500 M 63.250 56.662 C 62.254 57.064, 62 116.292, 62 348.115 C 62 617.183, 62.124 639.110, 63.645 639.694 C 68.189 641.438, 68 654.058, 68 349.309 L 68 62 391.498 62 L 714.997 62 715.248 350.750 L 715.500 639.500 718 639.500 L 720.500 639.500 720.752 349.105 C 720.937 135.267, 720.707 58.352, 719.879 57.355 C 718.938 56.220, 665.643 56.013, 391.628 56.079 C 211.707 56.122, 63.938 56.385, 63.250 56.662 M 101.250 94.662 C 100.563 94.940, 100 96.254, 100 97.583 L 100 100 389 100 L 678 100 678 367 L 678 634 390.582 634 C 232.502 634, 102.452 634.273, 101.582 634.607 C 100.712 634.941, 100 636.291, 100 637.607 L 100 640 391.481 640 L 682.962 640 683.504 637.750 C 683.802 636.513, 683.923 514.020, 683.773 365.545 L 683.500 95.590 681 94.895 C 678.177 94.110, 103.191 93.879, 101.250 94.662 M 99.608 135.580 C 99.273 136.451, 99 240.766, 99 367.391 C 99 610.118, 98.854 602.145, 103.276 600.447 C 104.901 599.824, 105 586.576, 105 369.893 L 105 140 371 140 L 637 140 637 369.893 C 637 609.973, 636.876 602.549, 640.843 600.097 C 641.721 599.555, 641.943 542.595, 641.752 366.940 L 641.500 134.500 370.858 134.248 C 124.712 134.019, 100.160 134.140, 99.608 135.580 M 140.247 365.248 L 140.500 559.500 150 559.500 C 158.833 559.500, 159.500 559.360, 159.500 557.500 C 159.500 555.727, 158.735 555.466, 152.750 555.204 L 146 554.909 146 365.454 L 146 176 372.500 176 L 599 176 599 387.378 C 599 574.049, 599.175 598.901, 600.500 600 C 601.697 600.993, 602.304 600.993, 603.502 599.998 C 604.832 598.895, 604.976 574.146, 604.752 385.126 L 604.500 171.500 372.247 171.248 L 139.995 170.996 140.247 365.248 M 177.669 210.664 C 177.301 211.032, 177 297.433, 177 402.667 L 177 594 159.622 594 C 145.462 594, 142.016 594.275, 141.011 595.487 C 140.332 596.305, 140.019 597.606, 140.315 598.378 C 140.743 599.495, 144.805 599.869, 160.177 600.210 C 170.805 600.446, 180.287 600.254, 181.250 599.784 C 182.908 598.975, 183 588.820, 183 407.465 L 183 216 371 216 L 559 216 559 407.378 C 559 610.505, 558.811 602.161, 563.376 600.409 C 564.875 599.834, 564.985 584.241, 564.753 405.142 L 564.500 210.500 371.419 210.247 C 265.225 210.109, 178.037 210.296, 177.669 210.664 M 215.337 251.564 C 215.006 252.428, 215.153 253.553, 215.664 254.064 C 216.226 254.626, 276.812 255.094, 369.047 255.247 L 521.500 255.500 521.500 425 L 521.500 594.500 368.717 594.753 C 233.559 594.977, 215.868 595.181, 215.356 596.516 C 215.037 597.346, 215.332 598.695, 216.011 599.513 C 217.093 600.817, 236.191 601, 371.500 601 C 500.108 601, 525.942 600.775, 526.880 599.644 C 527.707 598.648, 527.938 552.091, 527.753 424.394 L 527.500 250.500 371.720 250.247 C 230.920 250.018, 215.882 250.145, 215.337 251.564 M 216.011 287.487 C 215.332 288.305, 215.037 289.654, 215.355 290.484 C 215.867 291.817, 231.440 292.022, 348.982 292.246 L 482.029 292.500 482.026 425 C 482.024 497.875, 482.409 558.107, 482.881 558.848 C 483.353 559.590, 484.586 560.034, 485.620 559.835 C 487.448 559.483, 487.507 555.682, 487.754 423.548 C 487.955 315.468, 487.750 287.459, 486.754 286.827 C 486.064 286.389, 425.143 286.024, 351.372 286.015 C 233.866 286.002, 217.092 286.184, 216.011 287.487 M 216.119 306.357 C 215.294 307.351, 215.060 341.402, 215.246 433.607 L 215.500 559.500 218 559.500 L 220.500 559.500 220.754 433.607 C 221.005 309.301, 220.912 305, 218 305 C 217.585 305, 216.738 305.611, 216.119 306.357 M 277.750 353.573 C 275.688 354.924, 274 356.433, 274 356.927 C 274 357.421, 283.337 365.815, 294.750 375.581 C 337.702 412.335, 378.039 456.434, 412.441 504.250 C 416.695 510.163, 420.645 515, 421.220 515 C 422.780 515, 429.139 510.885, 428.797 510.097 C 427.994 508.251, 411.113 485.301, 404.426 476.967 C 385.922 453.903, 342.993 406.899, 321.056 385.682 C 313.766 378.633, 307.959 372.722, 308.151 372.547 C 308.343 372.372, 313.871 369.432, 320.435 366.014 C 330.238 360.909, 332.969 359.896, 335.717 360.342 C 337.558 360.640, 347.037 364.688, 356.782 369.336 C 386.875 383.689, 400.798 387.409, 422.270 386.833 L 434.689 386.500 443.447 382 C 453.618 376.774, 457 373.370, 457 368.360 L 457 364.873 451.782 367.687 C 447.521 369.984, 446.440 371.113, 445.889 373.843 C 445.518 375.681, 444.694 377.706, 444.058 378.343 C 443.343 379.058, 438.015 379.632, 430.101 379.847 C 408.804 380.423, 394.164 376.451, 364 361.913 C 353.825 357.009, 344.250 352.998, 342.721 352.998 C 339.705 353, 333.393 355.967, 316.774 365.193 C 304.265 372.138, 306.477 372.655, 293.035 359.643 C 288.124 354.890, 283.520 351.026, 282.803 351.059 C 282.086 351.091, 279.813 352.223, 277.750 353.573 M 249.753 429.358 C 247.692 430.536, 246.004 432.183, 246.003 433.017 C 245.997 436.127, 254.836 444.666, 261.905 448.381 C 265.766 450.410, 269.185 452.491, 269.503 453.005 C 269.821 453.520, 269.388 455.282, 268.541 456.921 C 267.082 459.743, 266.387 466, 267.533 466 C 267.827 466, 270.302 464.867, 273.033 463.483 C 277.063 461.441, 278 460.478, 278 458.376 C 278 456.477, 278.403 455.941, 279.510 456.365 C 286.234 458.946, 299.792 459.392, 309.923 457.365 L 312.787 456.793 310.029 464.646 C 306.318 475.216, 299.968 515.938, 301.713 517.977 C 301.937 518.239, 304.231 517.339, 306.810 515.977 L 311.500 513.500 313.121 499 C 316.626 467.643, 320.273 455.538, 328.625 447.535 C 331.221 445.047, 333.102 442.768, 332.804 442.471 C 331.845 441.512, 321.069 446.071, 317.806 448.817 C 314.837 451.315, 314.028 451.477, 304.572 451.465 C 295.201 451.453, 283 449.106, 283 447.316 C 283 446.275, 288.042 439.771, 292.338 435.271 C 294.558 432.945, 296.070 430.737, 295.698 430.364 C 294.302 428.968, 286.826 433.490, 281.874 438.727 C 277.796 443.039, 276.279 444.036, 274.484 443.585 C 271.003 442.712, 262.247 435.730, 258.865 431.131 C 257.194 428.859, 255.303 427.049, 254.663 427.108 C 254.024 427.168, 251.814 428.181, 249.753 429.358 M 1.762 680.707 C 3.006 680.946, 4.806 680.937, 5.762 680.687 C 6.718 680.437, 5.700 680.241, 3.500 680.252 C 1.300 680.263, 0.518 680.468, 1.762 680.707 M 12.750 680.737 C 15.638 680.939, 20.363 680.939, 23.250 680.737 C 26.138 680.535, 23.775 680.370, 18 680.370 C 12.225 680.370, 9.863 680.535, 12.750 680.737 " stroke="none" fill="black" fill-rule="evenodd"/>
	<path fill-opacity="0.389" d="M 62.362 18.500 C 62.045 19.325, 62.045 20.674, 62.361 21.499 C 62.870 22.825, 102.442 23.026, 407.471 23.249 L 752.006 23.500 752.006 347 L 752.006 670.500 405.753 671 C 60.333 671.499, 59.500 671.505, 59.500 673.500 C 59.500 675.496, 60.250 675.501, 408.750 675.751 L 758 676.003 758 346.501 L 758 17 410.469 17 C 102.474 17, 62.872 17.171, 62.362 18.500 M 62.463 58.248 C 62.202 58.937, 62.103 190, 62.244 349.500 C 62.499 638.748, 62.505 639.500, 64.500 639.500 C 66.495 639.500, 66.501 638.749, 66.752 350.750 L 67.003 62 391.002 62 L 715 62 715 349.878 C 715 604.549, 715.173 637.899, 716.500 639 C 717.697 639.993, 718.304 639.993, 719.502 638.999 C 720.832 637.895, 720.975 604.647, 720.752 347.626 L 720.500 57.500 391.719 57.248 C 129.219 57.048, 62.843 57.249, 62.463 58.248 M 100.180 97.250 L 100.500 99.500 389.252 99.752 L 678.004 100.003 677.752 367.252 L 677.500 634.500 388.681 634.752 L 99.861 635.003 100.181 637.252 L 100.500 639.500 391.274 639.752 L 682.048 640.003 683.024 637.437 C 684.092 634.629, 684.457 99.354, 683.393 96.582 C 682.841 95.144, 656.177 95, 391.323 95 L 99.861 95 100.180 97.250 M 100.668 134.665 C 100.301 135.033, 100 239.915, 100 367.736 L 100 600.139 102.250 599.820 L 104.500 599.500 104.752 369.248 L 105.004 138.996 370.752 139.248 L 636.500 139.500 636.752 369.819 L 637.004 600.139 639.252 599.819 L 641.500 599.500 641.500 367 L 641.500 134.500 371.418 134.248 C 222.874 134.110, 101.036 134.297, 100.668 134.665 M 140.463 172.248 C 140.201 172.937, 140.102 260.350, 140.243 366.500 L 140.500 559.500 149.500 559.500 C 158.072 559.500, 158.515 559.393, 158.820 557.250 C 159.125 555.099, 158.829 555, 152.070 555 L 145 555 145 365.500 L 145 176 371.998 176 L 598.995 176 599.248 387.750 L 599.500 599.500 602 599.500 L 604.500 599.500 604.500 385.500 L 604.500 171.500 372.719 171.248 C 187.820 171.047, 140.843 171.249, 140.463 172.248 M 177.669 210.664 C 177.301 211.032, 177 297.613, 177 403.067 L 177 594.800 159.553 594.650 C 141.624 594.496, 139.022 595.008, 140.336 598.433 C 140.855 599.785, 143.749 600, 161.466 600 L 181.995 600 182.247 407.750 L 182.500 215.500 370.750 215.247 L 559 214.995 559.015 406.247 C 559.024 511.436, 559.415 598.107, 559.885 598.848 C 560.355 599.590, 561.586 600.034, 562.620 599.835 C 564.452 599.482, 564.500 594.546, 564.500 404.986 L 564.500 210.500 371.419 210.247 C 265.225 210.109, 178.037 210.296, 177.669 210.664 M 215.754 251.250 C 214.344 255.086, 210.824 255, 369.083 255 L 522 255 522 425 L 522 595 369.107 595 C 210.878 595, 214.393 594.914, 215.731 598.750 C 216.077 599.743, 248.128 600, 371.476 600 C 512.176 600, 526.843 599.851, 527.393 598.418 C 528.187 596.350, 528.187 253.650, 527.393 251.582 C 526.843 250.149, 512.178 250, 371.500 250 C 248.183 250, 216.119 250.257, 215.754 251.250 M 216.056 287.895 C 215.320 289.270, 215.406 290.092, 216.369 290.891 C 217.317 291.678, 255.522 292.065, 350.098 292.246 L 482.500 292.500 483 426 C 483.497 558.667, 483.512 559.500, 485.500 559.500 C 487.489 559.500, 487.501 558.748, 487.757 424 C 487.998 297.496, 487.902 288.417, 486.316 287.250 C 484.977 286.265, 456.290 286, 350.844 286 C 220.565 286, 217.044 286.049, 216.056 287.895 M 215.667 306.667 C 214.834 307.500, 214.775 556.250, 215.607 558.418 C 216.392 560.464, 219.608 560.464, 220.393 558.418 C 221.186 556.351, 221.186 309.649, 220.393 307.582 C 219.781 305.988, 216.903 305.431, 215.667 306.667 M 278.250 353.641 C 275.913 355.050, 274 356.533, 274 356.937 C 274 357.341, 282.212 364.560, 292.250 372.981 C 311.351 389.004, 346.860 423.885, 365.077 444.520 C 384.863 466.931, 403.435 490.433, 415.537 508.376 C 417.717 511.607, 419.997 514.443, 420.605 514.677 C 421.550 515.041, 429 511.344, 429 510.511 C 429 509.752, 403.902 476.505, 397.663 469 C 379.003 446.553, 331.903 395.726, 317.647 382.653 C 312.341 377.787, 308 373.479, 308 373.080 C 308 372.681, 309.913 371.368, 312.250 370.162 C 314.587 368.956, 319.875 366.181, 324 363.994 C 328.125 361.807, 332.456 360.014, 333.624 360.009 C 336.841 359.995, 342.094 362.099, 358.018 369.779 C 385.034 382.807, 398.442 386.449, 419.500 386.480 C 434.675 386.502, 435.951 386.203, 446.500 380.153 C 453.647 376.054, 456.915 372.493, 456.964 368.750 C 457.007 365.465, 456.267 365.372, 451.183 368.022 C 448.196 369.579, 447.026 370.969, 446.098 374.067 C 444.483 379.457, 442.049 380.303, 428 380.360 C 408.074 380.441, 393.735 376.405, 366.108 362.941 C 355.992 358.012, 346.072 353.715, 344.063 353.394 C 340.932 352.893, 338.724 353.692, 328.638 358.970 C 322.164 362.358, 314.627 366.451, 311.890 368.065 C 309.152 369.679, 306.416 371, 305.809 371 C 305.202 371, 299.866 366.500, 293.952 361 C 288.037 355.500, 283.041 351.018, 282.849 351.039 C 282.657 351.060, 280.587 352.231, 278.250 353.641 M 250.741 429.374 C 245.530 432.578, 245.514 432.609, 247.509 435.654 C 251.217 441.313, 255.193 444.717, 262.873 448.810 L 270.802 453.034 268.901 456.969 C 267.090 460.717, 266.326 466, 267.596 466 C 268.470 466, 274.222 462.747, 276.250 461.106 C 277.212 460.327, 278 458.860, 278 457.845 C 278 455.666, 277.847 455.672, 285.500 457.520 C 292.915 459.311, 298.654 459.345, 306.750 457.649 C 310.188 456.928, 313 456.409, 313 456.494 C 313 456.580, 311.877 459.950, 310.505 463.984 C 309.133 468.019, 307.136 475.860, 306.067 481.410 C 303.925 492.534, 301.301 516.635, 302.141 517.474 C 302.434 517.767, 304.658 516.957, 307.083 515.675 L 311.493 513.343 312.668 500.916 C 314.167 485.073, 316.407 472.739, 319.737 462 C 321.987 454.745, 323.077 452.818, 327.186 448.840 C 329.834 446.278, 332 443.697, 332 443.105 C 332 441.863, 322.769 445.240, 319.118 447.818 C 313.168 452.019, 312.704 452.123, 302 451.671 C 292.013 451.249, 283 449.018, 283 446.968 C 283 445.986, 289.283 437.660, 293.137 433.536 C 294.660 431.906, 295.771 430.438, 295.607 430.274 C 295.443 430.110, 293.243 430.890, 290.718 432.007 C 287.996 433.211, 284.120 436.289, 281.199 439.566 L 276.273 445.093 272.386 442.860 C 266.045 439.217, 261.522 435.360, 258.536 431.053 C 256.992 428.824, 255.452 427.014, 255.114 427.031 C 254.776 427.048, 252.808 428.103, 250.741 429.374 M 1.762 680.707 C 3.006 680.946, 4.806 680.937, 5.762 680.687 C 6.718 680.437, 5.700 680.241, 3.500 680.252 C 1.300 680.263, 0.518 680.468, 1.762 680.707 M 13.784 680.738 C 16.689 680.941, 21.189 680.939, 23.784 680.734 C 26.378 680.528, 24 680.363, 18.500 680.365 C 13 680.368, 10.878 680.536, 13.784 680.738 " stroke="none" fill="black" fill-rule="evenodd"/>
	<path fill-opacity="0.663" d="M 63 18.500 C 62.007 19.697, 62.007 20.303, 63 21.500 C 64.102 22.828, 103.729 23, 408.622 23 L 753 23 753 347 L 753 671 407.200 671 C 152.960 671, 61.103 671.297, 60.278 672.122 C 56.257 676.143, 43.381 676, 409.107 676 L 758 676 758 347.107 C 758 48.122, 757.856 18.159, 756.418 17.607 C 755.548 17.273, 599.453 17, 409.541 17 C 103.831 17, 64.102 17.172, 63 18.500 M 62.667 57.667 C 61.428 58.905, 61.882 637.482, 63.122 638.722 C 67.132 642.732, 67 652.524, 67 350.393 L 67 62 391.500 62 L 716 62 716 350.393 C 716 596.883, 716.204 638.864, 717.402 639.324 C 718.173 639.620, 719.073 639.593, 719.402 639.264 C 719.731 638.936, 720 507.792, 720 347.833 L 720 57 391.667 57 C 211.083 57, 63.033 57.300, 62.667 57.667 M 100.324 96.599 C 99.985 97.481, 100.337 98.600, 101.104 99.086 C 101.904 99.592, 225.608 99.976, 390.752 99.985 L 679.004 100 678.752 367.250 L 678.500 634.500 389.514 635 C 117.610 635.470, 100.508 635.601, 100.197 637.214 C 99.983 638.329, 100.678 639.124, 102.184 639.487 C 103.458 639.795, 234.550 639.923, 393.500 639.773 L 682.500 639.500 682.500 367.500 L 682.500 95.500 391.719 95.248 C 125.749 95.018, 100.886 95.133, 100.324 96.599 M 101.248 134.826 C 100.250 135.459, 100.047 182.668, 100.248 367.560 C 100.499 598.749, 100.506 599.500, 102.500 599.500 C 104.493 599.500, 104.501 598.749, 104.752 369.250 L 105.004 139 371 139 L 636.996 139 637.248 369.250 C 637.499 598.749, 637.507 599.500, 639.500 599.500 C 641.494 599.500, 641.501 598.749, 641.752 368.105 C 641.938 197.892, 641.707 136.352, 640.880 135.355 C 639.939 134.221, 595.929 134.002, 371.128 134.015 C 223.382 134.024, 101.937 134.388, 101.248 134.826 M 140.608 172.580 C 139.676 175.009, 139.916 557.320, 140.851 558.793 C 141.441 559.724, 144.029 560.004, 150.086 559.793 C 157.736 559.527, 158.500 559.318, 158.500 557.500 C 158.500 555.727, 157.735 555.466, 151.750 555.204 L 145 554.909 145 365.454 L 145 176 372.500 176 L 600 176 600 388.073 C 600 589.510, 600.088 600.130, 601.750 599.810 C 603.410 599.490, 603.500 588.488, 603.500 385.486 L 603.500 171.500 372.358 171.248 C 162.231 171.019, 141.160 171.140, 140.608 172.580 M 178.200 211.200 C 177.275 212.125, 177 256.244, 177 403.700 L 177 595 159.107 595 C 145.070 595, 141.103 595.289, 140.700 596.341 C 139.400 599.728, 141.342 600.048, 161.572 599.772 L 181.500 599.500 181.753 407.250 L 182.005 215 371.003 215 L 560 215 560 407.031 C 560 582.184, 560.141 599.117, 561.601 599.677 C 562.481 600.015, 563.600 599.663, 564.086 598.896 C 565.541 596.597, 565.258 212.658, 563.800 211.200 C 562.054 209.454, 179.946 209.454, 178.200 211.200 M 216.337 251.564 C 216.006 252.428, 216.153 253.553, 216.664 254.064 C 217.226 254.626, 277.812 255.094, 370.047 255.247 L 522.500 255.500 522.753 425.247 L 523.006 594.994 369.753 595.247 L 216.500 595.500 216.180 597.750 L 215.861 600 371.433 600 L 527.006 600 526.753 425.250 L 526.500 250.500 371.720 250.247 C 231.828 250.018, 216.882 250.145, 216.337 251.564 M 216.180 289.246 L 216.500 291.500 349.750 291.754 L 483 292.007 483 425.445 C 483 517.057, 483.327 559.084, 484.044 559.527 C 484.618 559.882, 485.745 559.627, 486.547 558.961 C 487.816 557.908, 487.974 540.074, 487.754 422.625 L 487.500 287.500 351.680 287.246 L 215.860 286.993 216.180 289.246 M 216.246 432.750 C 216.470 544.637, 216.676 559.500, 218 559.500 C 219.324 559.500, 219.530 544.637, 219.754 432.750 C 220.007 306.421, 220.001 306, 218 306 C 215.999 306, 215.993 306.421, 216.246 432.750 M 278.265 354.089 L 274.030 357.089 291.325 371.906 C 312.857 390.353, 322.544 399.292, 336.305 413.413 C 349.489 426.941, 375.882 456.059, 384.076 466.117 C 392.436 476.379, 411.939 502.324, 416.498 509.250 C 418.580 512.413, 420.504 515, 420.774 515 C 421.589 515, 428 510.873, 428 510.349 C 428 508.867, 410.256 484.982, 398.398 470.500 C 378.977 446.784, 337.782 402.412, 314.670 380.313 C 310.364 376.195, 306.989 372.692, 307.170 372.529 C 307.352 372.365, 312.817 369.424, 319.314 365.993 C 334.311 358.074, 334.365 358.078, 356.724 368.772 C 385.655 382.609, 399.046 386.342, 420 386.413 L 433.500 386.459 442 382.140 C 446.675 379.765, 451.716 376.674, 453.201 375.270 C 455.689 372.921, 457.833 367.499, 456.716 366.383 C 456.455 366.122, 454.162 366.919, 451.621 368.154 C 448.077 369.875, 447 370.946, 447 372.745 C 447 379.117, 438.509 381.820, 422.077 380.677 C 403.970 379.419, 390.485 375.238, 365 362.982 C 354.825 358.088, 345.375 353.827, 344 353.512 C 341.182 352.866, 334.045 356.082, 316.611 365.856 L 305.722 371.960 299.111 366.063 C 295.475 362.820, 290.494 358.104, 288.042 355.583 C 285.590 353.062, 283.340 351.020, 283.042 351.045 C 282.744 351.069, 280.594 352.439, 278.265 354.089 M 250.250 429.816 C 247.912 431.280, 246 432.730, 246 433.039 C 246 433.348, 248.244 436.118, 250.986 439.195 C 254.439 443.069, 258.285 445.975, 263.490 448.645 C 268.999 451.470, 270.846 452.901, 270.401 454 C 267.606 460.911, 266.702 464.035, 267.319 464.653 C 267.718 465.051, 270.059 464.398, 272.522 463.202 C 276.135 461.446, 277 460.519, 277 458.404 C 277 455.928, 277.209 455.816, 280.750 456.413 C 289.332 457.860, 303.150 458.200, 307.620 457.074 C 310.163 456.434, 312.436 456.103, 312.672 456.338 C 312.907 456.574, 312.159 459.560, 311.008 462.975 C 307.414 473.646, 302 504.978, 302 515.112 L 302 518.041 306.250 515.897 C 308.587 514.719, 310.611 513.661, 310.746 513.548 C 310.881 513.435, 311.647 506.852, 312.449 498.921 C 314.134 482.247, 315.941 472.883, 319.755 461.058 C 322.081 453.845, 323.206 451.917, 327.489 447.809 C 330.245 445.165, 331.950 443.002, 331.279 443.001 C 328.986 442.999, 318.709 448.016, 317.432 449.760 C 315.533 452.353, 293.540 452.287, 286.750 449.667 C 284.137 448.659, 282 447.599, 282 447.311 C 282 446.493, 287.973 438.895, 291.876 434.750 C 295.920 430.454, 295.766 430.314, 289.813 432.866 C 286.064 434.473, 283.717 436.736, 277.255 444.976 C 277.049 445.238, 274.423 444.165, 271.418 442.592 C 266.393 439.961, 256 430.070, 256 427.919 C 256 426.537, 254.917 426.894, 250.250 429.816 M 1.250 680.689 C 2.212 680.941, 3.788 680.941, 4.750 680.689 C 5.713 680.438, 4.925 680.232, 3 680.232 C 1.075 680.232, 0.288 680.438, 1.250 680.689 M 9.813 680.683 C 10.534 680.972, 11.397 680.936, 11.729 680.604 C 12.061 680.272, 11.471 680.036, 10.417 680.079 C 9.252 680.127, 9.015 680.364, 9.813 680.683 M 18.750 680.723 C 20.538 680.945, 23.462 680.945, 25.250 680.723 C 27.038 680.502, 25.575 680.320, 22 680.320 C 18.425 680.320, 16.962 680.502, 18.750 680.723 " stroke="none" fill="black" fill-rule="evenodd"/>
	<path fill-opacity="0.800" d="M 63.667 18.667 C 60.276 22.058, 54.312 22, 407.997 22 L 752.994 22 753.247 346 C 753.386 524.200, 753.350 670.450, 753.167 671 C 752.945 671.664, 636.432 672, 406.343 672 C 76.891 672, 59.870 672.086, 60.190 673.750 C 60.510 675.412, 77.946 675.514, 407.014 675.773 C 597.581 675.923, 754.513 675.802, 755.750 675.504 L 758 674.962 758 346.481 L 758 18 411.167 18 C 220.408 18, 64.033 18.300, 63.667 18.667 M 63 348.500 C 63 605.908, 63.171 639, 64.498 639 C 65.825 639, 66.025 605.992, 66.248 350.250 L 66.500 61.500 391 61.500 L 715.500 61.500 716 349.986 C 716.474 623.713, 716.590 638.490, 718.250 638.810 C 719.913 639.130, 720 624.772, 720 348.573 L 720 58 391.500 58 L 63 58 63 348.500 M 102.250 95.662 C 101.563 95.940, 101 96.803, 101 97.582 C 101 98.798, 141.582 99.032, 389.750 99.248 L 678.500 99.500 678.752 367.248 L 679.004 634.997 390.266 635.248 C 116.080 635.487, 101.510 635.588, 101.190 637.252 C 100.869 638.918, 115.055 638.991, 391.676 638.752 L 682.500 638.500 682.752 367.381 L 683.004 96.262 679.252 95.642 C 674.805 94.907, 104.072 94.927, 102.250 95.662 M 101 367 C 101 572.408, 101.172 599, 102.498 599 C 103.823 599, 104.025 572.547, 104.248 369.250 L 104.500 139.500 370.748 139.248 L 636.996 138.996 637.248 368.734 C 637.487 586.623, 637.590 598.490, 639.250 598.810 C 640.913 599.130, 641 587.557, 641 367.073 L 641 135 371 135 L 101 135 101 367 M 141 365.498 L 141 559 149.573 559 C 157.199 559, 158.110 558.807, 157.813 557.250 C 157.546 555.846, 156.245 555.441, 151.237 555.202 L 144.995 554.904 145.247 365.202 L 145.500 175.500 372.500 175.500 L 599.500 175.500 599.752 387.250 C 600.004 598.249, 600.012 599, 602.005 599 C 603.999 599, 604.004 598.417, 603.752 385.750 L 603.500 172.500 372.250 172.248 L 141 171.996 141 365.498 M 177.753 403.250 L 177.500 595.500 162.449 595.127 C 146.281 594.726, 141 595.330, 141 597.579 C 141 598.761, 144.454 599, 161.500 599 L 182 599 182 407.107 C 182 233.048, 182.147 215.158, 183.582 214.607 C 185.650 213.813, 556.350 213.813, 558.418 214.607 C 559.853 215.158, 560 233.048, 560 407.107 C 560 598.333, 560.007 599, 562 599 C 563.993 599, 564 598.333, 564 405 L 564 211 371.003 211 L 178.005 211 177.753 403.250 M 216 252.497 C 216 253.818, 233.952 254.023, 369.250 254.247 L 522.500 254.500 522.500 425 L 522.500 595.500 369.583 596 C 248.496 596.396, 216.580 596.760, 216.250 597.750 C 215.918 598.746, 247.394 599, 371.417 599 L 527 599 527 425 L 527 251 371.500 251 C 234.091 251, 216 251.174, 216 252.497 M 216.502 287.996 C 216.161 288.548, 216.160 289.450, 216.500 290 C 216.907 290.659, 262.475 291, 349.952 291 C 470.157 291, 482.844 291.150, 483.393 292.582 C 483.727 293.452, 484 353.752, 484 426.582 C 484 543.760, 484.173 559, 485.504 559 C 486.836 559, 486.978 543.506, 486.754 423.250 L 486.500 287.500 351.811 287.246 C 262.501 287.078, 216.914 287.331, 216.502 287.996 M 216.688 306.646 C 216.309 307.024, 216 363.958, 216 433.167 C 216 558.414, 216.009 559, 218.004 559 C 220 559, 220.007 558.498, 219.754 432.833 C 219.577 344.876, 219.178 306.559, 218.438 306.312 C 217.853 306.118, 217.066 306.268, 216.688 306.646 M 278.292 354.344 C 276.527 355.530, 275.177 356.803, 275.292 357.172 C 275.476 357.766, 280.796 362.401, 298.429 377.327 C 319.984 395.574, 355.401 431.308, 374.975 454.560 C 385.379 466.917, 392.348 475.509, 396.828 481.500 C 399.707 485.350, 403.316 490.075, 404.848 492 C 406.380 493.925, 410.506 499.663, 414.017 504.750 C 417.528 509.837, 420.750 514, 421.176 514 C 421.603 514, 423.308 513.175, 424.967 512.167 L 427.982 510.333 421.465 501.417 C 407.708 482.592, 398.125 470.451, 387.429 458.295 C 382.688 452.908, 376.490 445.803, 373.655 442.508 C 370.820 439.212, 367.354 435.387, 365.953 434.008 C 364.553 432.628, 358.010 425.650, 351.414 418.500 C 335.224 400.950, 319.537 385.165, 307.602 374.415 C 302.158 369.512, 294.508 362.464, 290.602 358.754 C 286.696 355.043, 283.050 352.048, 282.500 352.098 C 281.950 352.148, 280.056 353.159, 278.292 354.344 M 332.500 357.967 C 324.967 361.815, 324.726 362.162, 331.224 359.809 C 334.748 358.533, 341.211 360.574, 354.204 367.068 C 383.745 381.831, 403.162 386.936, 425.183 385.727 C 435.029 385.187, 438.019 384.170, 449.664 377.402 C 452.992 375.467, 456 371.287, 456 368.596 C 456 366.617, 455.866 366.619, 451.577 368.665 C 448.951 369.917, 447.767 371.338, 446.793 374.407 C 444.887 380.419, 442.051 381.444, 427.500 381.379 C 417.394 381.334, 413.465 380.813, 402.604 378.079 C 389.159 374.694, 380.940 371.418, 360 361.099 C 343.519 352.978, 342.497 352.861, 332.500 357.967 M 310 370 C 309.099 370.582, 308.975 370.975, 309.691 370.985 C 310.346 370.993, 311.160 370.550, 311.500 370 C 312.267 368.758, 311.921 368.758, 310 370 M 250.750 430.165 C 248.688 431.282, 247 432.543, 247 432.967 C 247 433.392, 248.749 435.935, 250.888 438.619 C 253.661 442.101, 257.100 444.738, 262.888 447.820 C 267.349 450.196, 271 452.573, 271 453.102 C 271 453.631, 270.325 455.680, 269.500 457.654 C 268.675 459.629, 268 462.123, 268 463.197 C 268 465.074, 268.166 465.059, 272.250 462.812 C 275.469 461.041, 276.579 459.786, 276.826 457.640 C 277.099 455.267, 277.505 454.905, 279.326 455.411 C 287.282 457.626, 296.659 458.224, 304.688 457.030 C 309.320 456.340, 313.403 456.070, 313.761 456.428 C 314.119 456.786, 313.645 458.524, 312.707 460.289 C 311.769 462.055, 310.354 465.750, 309.562 468.500 C 307.831 474.513, 304.332 497.322, 303.396 508.693 L 302.722 516.887 306.861 514.839 C 309.137 513.713, 311 512.241, 311 511.569 C 311 503.798, 315.115 473.786, 317.111 467 C 319.753 458.018, 324.205 449.449, 327.243 447.500 C 328.957 446.400, 330.538 444.947, 330.756 444.271 C 331.297 442.596, 320.136 447.575, 317.169 450.333 C 315.085 452.271, 313.764 452.493, 304.669 452.438 C 294.593 452.377, 282 449.827, 282 447.848 C 282 446.458, 286.492 439.844, 289.957 436.133 C 291.686 434.282, 292.894 432.561, 292.643 432.310 C 291.544 431.211, 285.823 435.388, 281.504 440.443 L 276.810 445.938 271.869 443.434 C 265.981 440.450, 259.435 434.742, 257.410 430.825 C 255.701 427.522, 255.641 427.516, 250.750 430.165 M 21.264 680.718 C 22.784 680.947, 25.034 680.941, 26.264 680.704 C 27.494 680.467, 26.250 680.279, 23.500 680.286 C 20.750 680.294, 19.744 680.488, 21.264 680.718 " stroke="none" fill="black" fill-rule="evenodd"/>
</svg>